<svg xmlns="http://www.w3.org/2000/svg" xmlns:xlink="http://www.w3.org/1999/xlink" width="100" zoomAndPan="magnify" viewBox="0 0 75 74.999997" height="100" preserveAspectRatio="xMidYMid meet" version="1.0"><defs><clipPath id="93889c5680"><path d="M 0 2.316406 L 75 2.316406 L 75 72.816406 L 0 72.816406 Z M 0 2.316406 " clip-rule="nonzero"/></clipPath><clipPath id="aa999158ba"><path d="M 0 2.316406 L 75 2.316406 L 75 72.816406 L 0 72.816406 Z M 0 2.316406 " clip-rule="nonzero"/></clipPath></defs><path fill="#000000" d="M 55.355469 17.800781 C 48.023438 17.800781 42.054688 23.785156 42.054688 31.128906 C 42.054688 38.472656 48.023438 44.453125 55.355469 44.453125 C 62.683594 44.453125 68.65625 38.472656 68.65625 31.128906 C 68.65625 23.785156 62.683594 17.800781 55.355469 17.800781 Z M 55.355469 42.976562 C 48.820312 42.976562 43.53125 37.648438 43.53125 31.105469 C 43.53125 24.558594 48.84375 19.230469 55.355469 19.230469 C 61.886719 19.230469 67.203125 24.558594 67.203125 31.105469 C 67.203125 37.648438 61.886719 42.976562 55.355469 42.976562 Z M 55.355469 42.976562 " fill-opacity="1" fill-rule="nonzero"/><path fill="#000000" d="M 61.042969 26.058594 C 60.808594 26.058594 60.574219 26.175781 60.457031 26.363281 L 54.277344 35.210938 L 50.25 30.09375 C 50.109375 29.90625 49.898438 29.8125 49.6875 29.8125 C 49.523438 29.8125 49.359375 29.859375 49.242188 29.976562 C 49.078125 30.09375 48.984375 30.28125 48.960938 30.472656 C 48.9375 30.660156 48.984375 30.847656 49.101562 31.011719 L 53.738281 36.898438 C 53.878906 37.085938 54.089844 37.179688 54.300781 37.179688 L 54.324219 37.179688 C 54.558594 37.179688 54.769531 37.0625 54.910156 36.875 L 61.652344 27.234375 C 61.886719 26.90625 61.792969 26.457031 61.464844 26.222656 C 61.347656 26.105469 61.183594 26.058594 61.042969 26.058594 Z M 61.042969 26.058594 " fill-opacity="1" fill-rule="nonzero"/><path fill="#000000" d="M 55.355469 18.714844 C 48.539062 18.714844 42.992188 24.277344 42.992188 31.128906 C 42.992188 37.957031 48.539062 43.539062 55.355469 43.539062 C 62.167969 43.539062 67.742188 37.980469 67.742188 31.128906 C 67.71875 24.277344 62.167969 18.714844 55.355469 18.714844 Z M 55.355469 42.4375 C 49.125 42.4375 44.042969 37.367188 44.042969 31.105469 C 44.042969 24.863281 49.101562 19.773438 55.355469 19.773438 C 61.582031 19.773438 66.664062 24.839844 66.664062 31.105469 C 66.664062 37.367188 61.582031 42.4375 55.355469 42.4375 Z M 55.355469 42.4375 " fill-opacity="1" fill-rule="nonzero"/><path fill="#000000" d="M 55.355469 17.261719 C 47.722656 17.261719 41.515625 23.480469 41.515625 31.128906 C 41.515625 38.777344 47.722656 44.992188 55.355469 44.992188 C 62.988281 44.992188 69.191406 38.777344 69.191406 31.128906 C 69.191406 23.480469 62.988281 17.261719 55.355469 17.261719 Z M 55.355469 43.890625 C 48.328125 43.890625 42.59375 38.167969 42.59375 31.105469 C 42.59375 24.066406 48.304688 18.316406 55.355469 18.316406 C 62.378906 18.316406 68.117188 24.042969 68.117188 31.105469 C 68.117188 38.167969 62.378906 43.890625 55.355469 43.890625 Z M 55.355469 43.890625 " fill-opacity="1" fill-rule="nonzero"/><path fill="#000000" d="M 61.042969 25.519531 C 60.644531 25.519531 60.25 25.707031 60.015625 26.058594 L 54.230469 34.320312 L 50.648438 29.765625 C 50.390625 29.4375 50.015625 29.273438 49.640625 29.273438 C 49.359375 29.273438 49.101562 29.367188 48.867188 29.554688 C 48.328125 29.976562 48.234375 30.777344 48.65625 31.339844 L 53.292969 37.226562 C 53.527344 37.53125 53.902344 37.71875 54.277344 37.71875 C 54.300781 37.71875 54.300781 37.71875 54.300781 37.71875 C 54.699219 37.71875 55.074219 37.507812 55.308594 37.179688 L 62.050781 27.539062 C 62.449219 26.976562 62.308594 26.175781 61.746094 25.777344 C 61.558594 25.589844 61.300781 25.519531 61.042969 25.519531 Z M 61.207031 26.90625 L 54.464844 36.546875 C 54.441406 36.59375 54.371094 36.617188 54.300781 36.617188 C 54.253906 36.617188 54.183594 36.59375 54.160156 36.546875 L 49.523438 30.660156 C 49.453125 30.566406 49.476562 30.449219 49.546875 30.402344 C 49.570312 30.378906 49.617188 30.351562 49.664062 30.351562 C 49.6875 30.351562 49.757812 30.351562 49.804688 30.425781 L 53.386719 34.976562 L 54.277344 36.125 L 55.097656 34.929688 L 60.878906 26.671875 C 60.925781 26.597656 60.996094 26.597656 61.042969 26.597656 C 61.089844 26.597656 61.113281 26.597656 61.160156 26.621094 C 61.207031 26.671875 61.230469 26.71875 61.230469 26.742188 C 61.230469 26.789062 61.230469 26.859375 61.207031 26.90625 Z M 61.207031 26.90625 " fill-opacity="1" fill-rule="nonzero"/><path fill="#000000" d="M 73.710938 19.539062 C 73.3125 19.539062 72.984375 19.867188 72.984375 20.265625 L 72.984375 23.832031 C 72.984375 24.230469 73.3125 24.558594 73.710938 24.558594 C 74.109375 24.558594 74.4375 24.230469 74.4375 23.832031 L 74.4375 20.265625 C 74.4375 19.867188 74.109375 19.539062 73.710938 19.539062 Z M 73.710938 19.539062 " fill-opacity="1" fill-rule="nonzero"/><path fill="#000000" d="M 73.710938 30.257812 C 73.3125 30.257812 72.984375 30.589844 72.984375 30.988281 L 72.984375 34.554688 C 72.984375 34.953125 73.3125 35.28125 73.710938 35.28125 C 74.109375 35.28125 74.4375 34.953125 74.4375 34.554688 L 74.4375 30.988281 C 74.4375 30.566406 74.109375 30.257812 73.710938 30.257812 Z M 73.710938 30.257812 " fill-opacity="1" fill-rule="nonzero"/><path fill="#000000" d="M 35.359375 11.113281 C 35.359375 10.714844 35.03125 10.386719 34.632812 10.386719 L 8.382812 10.386719 C 7.984375 10.386719 7.65625 10.714844 7.65625 11.113281 L 7.65625 24.582031 C 7.65625 24.980469 7.984375 25.308594 8.382812 25.308594 L 34.632812 25.308594 C 35.03125 25.308594 35.359375 24.980469 35.359375 24.582031 Z M 33.90625 23.855469 L 9.109375 23.855469 L 9.109375 11.839844 L 33.90625 11.839844 Z M 33.90625 23.855469 " fill-opacity="1" fill-rule="nonzero"/><path fill="#000000" d="M 34.632812 30.894531 L 8.382812 30.894531 C 7.984375 30.894531 7.65625 31.222656 7.65625 31.621094 C 7.65625 32.019531 7.984375 32.347656 8.382812 32.347656 L 34.632812 32.347656 C 35.03125 32.347656 35.359375 32.019531 35.359375 31.621094 C 35.359375 31.222656 35.03125 30.894531 34.632812 30.894531 Z M 34.632812 30.894531 " fill-opacity="1" fill-rule="nonzero"/><path fill="#000000" d="M 34.632812 36.40625 L 8.382812 36.40625 C 7.984375 36.40625 7.65625 36.734375 7.65625 37.132812 C 7.65625 37.53125 7.984375 37.863281 8.382812 37.863281 L 34.632812 37.863281 C 35.03125 37.863281 35.359375 37.53125 35.359375 37.132812 C 35.359375 36.734375 35.03125 36.40625 34.632812 36.40625 Z M 34.632812 36.40625 " fill-opacity="1" fill-rule="nonzero"/><g clip-path="url(#93889c5680)"><path fill="#000000" d="M 68.257812 2.925781 L 6.71875 2.925781 C 3.300781 2.925781 0.539062 5.695312 0.539062 9.121094 L 0.539062 49.6875 C 0.539062 53.113281 3.300781 55.878906 6.71875 55.878906 L 29.246094 55.878906 L 29.246094 59.871094 L 27.746094 59.871094 C 27.347656 59.871094 27.023438 60.199219 27.023438 60.597656 L 27.023438 65.664062 L 25.359375 65.664062 C 24.960938 65.664062 24.632812 65.992188 24.632812 66.390625 L 24.632812 70.777344 L 16.554688 70.777344 C 16.15625 70.777344 15.828125 71.109375 15.828125 71.507812 C 15.828125 71.90625 16.15625 72.234375 16.554688 72.234375 L 58.421875 72.234375 C 58.820312 72.234375 59.148438 71.90625 59.148438 71.507812 C 59.148438 71.109375 58.820312 70.777344 58.421875 70.777344 L 50.34375 70.777344 L 50.34375 66.390625 C 50.34375 65.992188 50.015625 65.664062 49.617188 65.664062 L 47.953125 65.664062 L 47.953125 60.597656 C 47.953125 60.199219 47.628906 59.871094 47.230469 59.871094 L 45.730469 59.871094 L 45.730469 55.902344 L 68.257812 55.902344 C 71.675781 55.902344 74.4375 53.136719 74.4375 49.710938 L 74.4375 41.6875 C 74.4375 41.285156 74.109375 40.957031 73.710938 40.957031 C 73.3125 40.957031 72.984375 41.285156 72.984375 41.6875 L 72.984375 48.984375 L 1.992188 48.984375 L 1.992188 9.121094 C 1.992188 6.515625 4.121094 4.378906 6.71875 4.378906 L 68.257812 4.378906 C 70.855469 4.378906 72.984375 6.515625 72.984375 9.121094 L 72.984375 13.132812 C 72.984375 13.53125 73.3125 13.859375 73.710938 13.859375 C 74.109375 13.859375 74.4375 13.53125 74.4375 13.132812 L 74.4375 9.121094 C 74.4375 5.695312 71.675781 2.925781 68.257812 2.925781 Z M 46.527344 61.324219 L 46.527344 66.390625 C 46.527344 66.789062 46.855469 67.117188 47.253906 67.117188 L 48.914062 67.117188 L 48.914062 70.777344 L 26.109375 70.777344 L 26.109375 67.117188 L 41.5625 67.117188 C 41.960938 67.117188 42.289062 66.789062 42.289062 66.390625 C 42.289062 65.992188 41.960938 65.664062 41.5625 65.664062 L 28.496094 65.664062 L 28.496094 61.324219 Z M 30.699219 59.871094 L 30.699219 55.902344 L 44.277344 55.902344 L 44.277344 59.871094 Z M 72.984375 50.4375 L 72.753906 51.140625 C 72.121094 53.113281 70.316406 54.449219 68.257812 54.449219 L 6.71875 54.449219 C 4.660156 54.449219 2.855469 53.113281 2.222656 51.140625 L 1.992188 50.4375 Z M 72.984375 50.4375 " fill-opacity="1" fill-rule="nonzero"/></g><path fill="#000000" d="M 34.632812 41.945312 L 8.382812 41.945312 C 7.984375 41.945312 7.65625 42.273438 7.65625 42.671875 C 7.65625 43.070312 7.984375 43.398438 8.382812 43.398438 L 34.632812 43.398438 C 35.03125 43.398438 35.359375 43.070312 35.359375 42.671875 C 35.359375 42.273438 35.03125 41.945312 34.632812 41.945312 Z M 34.632812 41.945312 " fill-opacity="1" fill-rule="nonzero"/><g clip-path="url(#aa999158ba)"><path fill="#000000" d="M 68.257812 2.386719 L 6.71875 2.386719 C 3.019531 2.386719 0 5.414062 0 9.121094 L 0 49.6875 C 0 53.394531 3.019531 56.421875 6.71875 56.421875 L 28.707031 56.421875 L 28.707031 59.304688 L 27.746094 59.304688 C 27.046875 59.304688 26.484375 59.867188 26.484375 60.574219 L 26.484375 65.101562 L 25.359375 65.101562 C 24.65625 65.101562 24.09375 65.664062 24.09375 66.367188 L 24.09375 70.214844 L 16.554688 70.214844 C 15.851562 70.214844 15.289062 70.777344 15.289062 71.484375 C 15.289062 72.1875 15.851562 72.75 16.554688 72.75 L 58.445312 72.75 C 59.148438 72.75 59.710938 72.1875 59.710938 71.484375 C 59.710938 70.777344 59.148438 70.214844 58.445312 70.214844 L 50.90625 70.214844 L 50.90625 66.367188 C 50.90625 65.664062 50.34375 65.101562 49.640625 65.101562 L 48.515625 65.101562 L 48.515625 60.574219 C 48.515625 59.867188 47.953125 59.304688 47.253906 59.304688 L 46.292969 59.304688 L 46.292969 56.421875 L 68.28125 56.421875 C 71.980469 56.421875 75 53.394531 75 49.6875 L 75 41.664062 C 75 40.957031 74.4375 40.394531 73.734375 40.394531 C 73.03125 40.394531 72.472656 40.957031 72.472656 41.664062 L 72.472656 48.417969 L 2.527344 48.417969 L 2.527344 9.121094 C 2.527344 6.796875 4.402344 4.921875 6.71875 4.921875 L 68.257812 4.921875 C 70.574219 4.921875 72.449219 6.796875 72.449219 9.121094 L 72.449219 13.132812 C 72.449219 13.835938 73.007812 14.398438 73.710938 14.398438 C 74.414062 14.398438 74.976562 13.835938 74.976562 13.132812 L 74.976562 9.121094 C 74.976562 5.414062 71.980469 2.386719 68.257812 2.386719 Z M 73.898438 11.113281 L 73.898438 13.132812 C 73.898438 13.226562 73.804688 13.320312 73.710938 13.320312 C 73.617188 13.320312 73.523438 13.226562 73.523438 13.132812 L 73.523438 9.121094 C 73.523438 6.210938 71.160156 3.839844 68.257812 3.839844 L 6.71875 3.839844 C 3.816406 3.839844 1.453125 6.210938 1.453125 9.121094 L 1.453125 49.5 L 73.523438 49.5 L 73.523438 41.664062 C 73.523438 41.570312 73.617188 41.476562 73.710938 41.476562 C 73.804688 41.476562 73.898438 41.570312 73.898438 41.664062 L 73.898438 49.6875 C 73.898438 52.808594 71.371094 55.339844 68.257812 55.339844 L 45.191406 55.339844 L 45.191406 60.386719 L 47.230469 60.386719 C 47.324219 60.386719 47.417969 60.480469 47.417969 60.574219 L 47.417969 66.179688 L 49.617188 66.179688 C 49.710938 66.179688 49.804688 66.273438 49.804688 66.367188 L 49.804688 71.296875 L 58.421875 71.296875 C 58.515625 71.296875 58.609375 71.390625 58.609375 71.484375 C 58.609375 71.578125 58.515625 71.671875 58.421875 71.671875 L 16.554688 71.671875 C 16.460938 71.671875 16.367188 71.578125 16.367188 71.484375 C 16.367188 71.390625 16.460938 71.296875 16.554688 71.296875 L 25.171875 71.296875 L 25.171875 66.367188 C 25.171875 66.273438 25.265625 66.179688 25.359375 66.179688 L 27.558594 66.179688 L 27.558594 60.574219 C 27.558594 60.480469 27.652344 60.386719 27.746094 60.386719 L 29.785156 60.386719 L 29.785156 55.339844 L 6.71875 55.339844 C 3.605469 55.339844 1.078125 52.808594 1.078125 49.6875 L 1.078125 9.121094 C 1.078125 6 3.605469 3.464844 6.71875 3.464844 L 68.257812 3.464844 C 71.371094 3.464844 73.898438 6 73.898438 9.121094 Z M 73.898438 11.113281 " fill-opacity="1" fill-rule="nonzero"/></g><path fill="#000000" d="M 34.632812 35.867188 L 8.382812 35.867188 C 7.679688 35.867188 7.117188 36.429688 7.117188 37.132812 C 7.117188 37.839844 7.679688 38.402344 8.382812 38.402344 L 34.632812 38.402344 C 35.335938 38.402344 35.894531 37.839844 35.894531 37.132812 C 35.894531 36.429688 35.335938 35.867188 34.632812 35.867188 Z M 34.632812 37.34375 L 8.382812 37.34375 C 8.289062 37.34375 8.195312 37.25 8.195312 37.15625 C 8.195312 37.0625 8.289062 36.96875 8.382812 36.96875 L 34.632812 36.96875 C 34.726562 36.96875 34.820312 37.0625 34.820312 37.15625 C 34.820312 37.25 34.75 37.34375 34.632812 37.34375 Z M 34.632812 37.34375 " fill-opacity="1" fill-rule="nonzero"/><path fill="#000000" d="M 35.894531 11.113281 C 35.894531 10.410156 35.335938 9.847656 34.632812 9.847656 L 8.382812 9.847656 C 7.679688 9.847656 7.117188 10.410156 7.117188 11.113281 L 7.117188 24.582031 C 7.117188 25.285156 7.679688 25.847656 8.382812 25.847656 L 34.632812 25.847656 C 35.335938 25.847656 35.894531 25.285156 35.894531 24.582031 Z M 34.820312 24.582031 C 34.820312 24.675781 34.726562 24.769531 34.632812 24.769531 L 8.382812 24.769531 C 8.289062 24.769531 8.195312 24.675781 8.195312 24.582031 L 8.195312 11.113281 C 8.195312 11.019531 8.289062 10.925781 8.382812 10.925781 L 34.632812 10.925781 C 34.726562 10.925781 34.820312 11.019531 34.820312 11.113281 Z M 34.820312 24.582031 " fill-opacity="1" fill-rule="nonzero"/><path fill="#000000" d="M 34.632812 41.402344 L 8.382812 41.402344 C 7.679688 41.402344 7.117188 41.96875 7.117188 42.671875 C 7.117188 43.375 7.679688 43.9375 8.382812 43.9375 L 34.632812 43.9375 C 35.335938 43.9375 35.894531 43.375 35.894531 42.671875 C 35.894531 41.96875 35.335938 41.402344 34.632812 41.402344 Z M 34.632812 42.859375 L 8.382812 42.859375 C 8.289062 42.859375 8.195312 42.765625 8.195312 42.671875 C 8.195312 42.578125 8.289062 42.484375 8.382812 42.484375 L 34.632812 42.484375 C 34.726562 42.484375 34.820312 42.578125 34.820312 42.671875 C 34.820312 42.789062 34.75 42.859375 34.632812 42.859375 Z M 34.632812 42.859375 " fill-opacity="1" fill-rule="nonzero"/><path fill="#000000" d="M 73.710938 29.695312 C 73.007812 29.695312 72.449219 30.257812 72.449219 30.964844 L 72.449219 34.53125 C 72.449219 35.234375 73.007812 35.796875 73.710938 35.796875 C 74.414062 35.796875 74.976562 35.234375 74.976562 34.53125 L 74.976562 30.964844 C 74.976562 30.28125 74.414062 29.695312 73.710938 29.695312 Z M 73.898438 34.554688 C 73.898438 34.648438 73.804688 34.742188 73.710938 34.742188 C 73.617188 34.742188 73.523438 34.648438 73.523438 34.554688 L 73.523438 30.988281 C 73.523438 30.894531 73.617188 30.800781 73.710938 30.800781 C 73.804688 30.800781 73.898438 30.894531 73.898438 30.988281 Z M 73.898438 34.554688 " fill-opacity="1" fill-rule="nonzero"/><path fill="#000000" d="M 73.710938 18.996094 C 73.007812 18.996094 72.449219 19.5625 72.449219 20.265625 L 72.449219 23.832031 C 72.449219 24.535156 73.007812 25.097656 73.710938 25.097656 C 74.414062 25.097656 74.976562 24.535156 74.976562 23.832031 L 74.976562 20.265625 C 74.976562 19.585938 74.414062 18.996094 73.710938 18.996094 Z M 73.898438 23.832031 C 73.898438 23.925781 73.804688 24.019531 73.710938 24.019531 C 73.617188 24.019531 73.523438 23.925781 73.523438 23.832031 L 73.523438 20.265625 C 73.523438 20.171875 73.617188 20.078125 73.710938 20.078125 C 73.804688 20.078125 73.898438 20.171875 73.898438 20.265625 Z M 73.898438 23.832031 " fill-opacity="1" fill-rule="nonzero"/><path fill="#000000" d="M 9.648438 11.300781 L 8.570312 11.300781 L 8.570312 24.394531 L 34.445312 24.394531 L 34.445312 11.300781 Z M 33.367188 23.316406 L 9.648438 23.316406 L 9.648438 12.382812 L 33.367188 12.382812 Z M 33.367188 23.316406 " fill-opacity="1" fill-rule="nonzero"/><path fill="#000000" d="M 29.972656 60.785156 L 27.933594 60.785156 L 27.933594 66.203125 L 41.539062 66.203125 C 41.632812 66.203125 41.726562 66.296875 41.726562 66.390625 C 41.726562 66.484375 41.632812 66.578125 41.539062 66.578125 L 25.546875 66.578125 L 25.546875 71.320312 L 49.429688 71.320312 L 49.429688 66.578125 L 47.230469 66.578125 C 47.136719 66.578125 47.042969 66.484375 47.042969 66.390625 L 47.042969 60.785156 Z M 47.253906 67.660156 L 48.375 67.660156 L 48.375 70.238281 L 26.648438 70.238281 L 26.648438 67.660156 L 41.5625 67.660156 C 42.265625 67.660156 42.828125 67.09375 42.828125 66.390625 C 42.828125 65.6875 42.265625 65.125 41.5625 65.125 L 29.035156 65.125 L 29.035156 61.863281 L 45.988281 61.863281 L 45.988281 66.390625 C 45.988281 67.09375 46.550781 67.660156 47.253906 67.660156 Z M 47.253906 67.660156 " fill-opacity="1" fill-rule="nonzero"/><path fill="#000000" d="M 1.734375 51.304688 C 2.433594 53.511719 4.449219 54.988281 6.742188 54.988281 L 68.257812 54.988281 C 70.550781 54.988281 72.566406 53.511719 73.265625 51.304688 L 73.710938 49.898438 L 1.265625 49.898438 Z M 72.238281 50.976562 C 71.699219 52.667969 70.128906 53.910156 68.257812 53.910156 L 6.71875 53.910156 C 4.847656 53.910156 3.277344 52.667969 2.738281 50.976562 Z M 72.238281 50.976562 " fill-opacity="1" fill-rule="nonzero"/><path fill="#000000" d="M 34.632812 30.351562 L 8.382812 30.351562 C 7.679688 30.351562 7.117188 30.917969 7.117188 31.621094 C 7.117188 32.324219 7.679688 32.886719 8.382812 32.886719 L 34.632812 32.886719 C 35.335938 32.886719 35.894531 32.324219 35.894531 31.621094 C 35.894531 30.917969 35.335938 30.351562 34.632812 30.351562 Z M 34.632812 31.808594 L 8.382812 31.808594 C 8.289062 31.808594 8.195312 31.714844 8.195312 31.621094 C 8.195312 31.527344 8.289062 31.433594 8.382812 31.433594 L 34.632812 31.433594 C 34.726562 31.433594 34.820312 31.527344 34.820312 31.621094 C 34.820312 31.714844 34.75 31.808594 34.632812 31.808594 Z M 34.632812 31.808594 " fill-opacity="1" fill-rule="nonzero"/><path fill="#000000" d="M 44.816406 60.410156 L 44.816406 55.363281 L 30.160156 55.363281 L 30.160156 60.410156 Z M 31.238281 56.445312 L 43.742188 56.445312 L 43.742188 59.328125 L 31.238281 59.328125 Z M 31.238281 56.445312 " fill-opacity="1" fill-rule="nonzero"/></svg>