<svg xmlns="http://www.w3.org/2000/svg" xmlns:xlink="http://www.w3.org/1999/xlink" width="100" zoomAndPan="magnify" viewBox="0 0 75 74.999997" height="100" preserveAspectRatio="xMidYMid meet" version="1.0"><defs><clipPath id="d7002350a0"><path d="M 0.921875 11.664062 L 74.421875 11.664062 L 74.421875 64.914062 L 0.921875 64.914062 Z M 0.921875 11.664062 " clip-rule="nonzero"/></clipPath></defs><g clip-path="url(#d7002350a0)"><path fill="#000000" d="M 71.292969 14.761719 C 69.371094 12.851562 66.6875 11.660156 63.75 11.664062 L 11.589844 11.664062 C 5.699219 11.664062 0.925781 16.398438 0.925781 22.238281 L 0.925781 54.335938 C 0.925781 60.179688 5.699219 64.910156 11.589844 64.914062 L 63.75 64.914062 C 66.6875 64.914062 69.371094 63.726562 71.292969 61.816406 C 73.21875 59.910156 74.414062 57.25 74.414062 54.335938 L 74.414062 22.238281 C 74.414062 19.328125 73.21875 16.664062 71.292969 14.761719 Z M 11.589844 17.078125 L 63.75 17.078125 C 65 17.082031 66.113281 17.527344 67.011719 18.25 L 37.671875 40.207031 L 8.328125 18.25 C 9.226562 17.527344 10.339844 17.082031 11.589844 17.078125 Z M 6.386719 54.335938 L 6.386719 22.238281 C 6.386719 21.410156 6.597656 20.644531 6.945312 19.953125 L 27.300781 38.464844 L 6.890625 56.519531 C 6.574219 55.855469 6.386719 55.125 6.386719 54.335938 Z M 63.75 59.496094 L 11.589844 59.496094 C 10.410156 59.496094 9.351562 59.101562 8.484375 58.453125 L 30.101562 41.109375 L 33.378906 44.199219 C 35.804688 46.410156 39.535156 46.410156 41.964844 44.199219 L 45.238281 41.109375 L 66.855469 58.453125 C 65.988281 59.101562 64.929688 59.496094 63.75 59.496094 Z M 68.957031 54.335938 C 68.953125 55.125 68.765625 55.855469 68.453125 56.519531 L 48.039062 38.464844 L 68.394531 19.953125 C 68.742188 20.644531 68.953125 21.410156 68.957031 22.238281 Z M 68.957031 54.335938 " fill-opacity="1" fill-rule="nonzero"/></g></svg>