<?xml version="1.0" encoding="utf-8"?>
<!-- Generator: Adobe Illustrator 22.0.1, SVG Export Plug-In . SVG Version: 6.00 Build 0)  -->
<svg version="1.1" id="Layer_1" xmlns="http://www.w3.org/2000/svg" xmlns:xlink="http://www.w3.org/1999/xlink" x="0px" y="0px"
	 viewBox="0 0 200 34.4" style="enable-background:new 0 0 200 34.4;" xml:space="preserve">
   <title>CarPlanner</title>
    <desc>CarPlanner Logo - Drive your choice</desc>
<style type="text/css">
	.st0-logo{fill:#8C959D;}
	.st1-logo{fill:#2EC58D;}
</style>
<g>
	<g>
		<g>
			<path class="st0-logo" d="M63.5,21.8c0.8,0,1.4-0.2,2.1-0.5c0.6-0.3,1.2-0.8,1.6-1.3l2.3,1.8c-0.7,0.9-1.6,1.6-2.6,2.1
				c-1,0.5-2.2,0.8-3.4,0.8c-1,0-2-0.2-3-0.6c-0.9-0.4-1.7-0.9-2.4-1.6c-0.7-0.7-1.3-1.5-1.7-2.4c-0.4-0.9-0.6-1.9-0.6-3
				c0-1,0.2-2,0.6-3c0.4-0.9,0.9-1.7,1.7-2.4c0.7-0.7,1.5-1.2,2.4-1.6c0.9-0.4,1.9-0.6,3-0.6c1.2,0,2.4,0.3,3.4,0.8
				c1,0.5,1.9,1.2,2.6,2.2l-2.3,1.8c-0.4-0.6-1-1-1.6-1.3c-0.6-0.3-1.3-0.5-2.1-0.5c-0.6,0-1.2,0.1-1.8,0.4c-0.6,0.2-1.1,0.6-1.5,1
				c-0.4,0.4-0.8,0.9-1,1.5c-0.2,0.6-0.4,1.2-0.4,1.8c0,0.6,0.1,1.2,0.4,1.8c0.2,0.6,0.6,1.1,1,1.5c0.4,0.4,0.9,0.8,1.5,1
				C62.2,21.7,62.8,21.8,63.5,21.8z"/>
			<path class="st0-logo" d="M77.9,9.5c1.1,0,2.1,0.2,3,0.6c0.9,0.4,1.8,1,2.5,1.7c0.7,0.7,1.3,1.5,1.7,2.5c0.4,0.9,0.6,1.9,0.6,3v7.5h-3
				v-1.4c-0.7,0.5-1.4,0.9-2.2,1.2c-0.8,0.3-1.6,0.4-2.5,0.4c-1.1,0-2.1-0.2-3-0.6c-0.9-0.4-1.8-1-2.4-1.7c-0.7-0.7-1.2-1.5-1.7-2.4
				c-0.4-0.9-0.6-1.9-0.6-3c0-1.1,0.2-2.1,0.6-3c0.4-0.9,1-1.8,1.6-2.5s1.5-1.2,2.4-1.7C75.8,9.7,76.8,9.5,77.9,9.5z M77.9,22
				c0.7,0,1.3-0.1,1.8-0.4c0.6-0.3,1.1-0.6,1.5-1c0.4-0.4,0.8-0.9,1-1.5c0.3-0.6,0.4-1.2,0.4-1.8c0-0.7-0.1-1.3-0.4-1.8
				c-0.3-0.6-0.6-1.1-1-1.5c-0.4-0.4-0.9-0.8-1.5-1c-0.6-0.3-1.2-0.4-1.8-0.4s-1.3,0.1-1.8,0.4c-0.6,0.3-1.1,0.6-1.5,1
				c-0.4,0.4-0.8,0.9-1,1.5c-0.3,0.6-0.4,1.2-0.4,1.8c0,0.6,0.1,1.2,0.4,1.8c0.3,0.6,0.6,1.1,1,1.5c0.4,0.4,0.9,0.8,1.5,1
				C76.6,21.8,77.2,22,77.9,22z"/>
			<path class="st0-logo" d="M98.2,10.6c0.7,0.4,1.2,1,1.7,1.6l-1.7,1.3l-0.6,0.5c-0.3-0.5-0.8-0.9-1.3-1.2c-0.5-0.3-1.1-0.4-1.7-0.4
				c-0.5,0-1,0.1-1.4,0.3c-0.4,0.2-0.8,0.5-1.2,0.8c-0.3,0.3-0.6,0.7-0.8,1.2c-0.2,0.4-0.3,0.9-0.3,1.4v5.5v3.1h-3v-8.6V9.5h3v1.1
				c0.5-0.4,1.1-0.6,1.7-0.8s1.3-0.3,1.9-0.3c0.7,0,1.3,0.1,1.9,0.3S97.6,10.3,98.2,10.6z"/>
			<path class="st1-logo" d="M107.4,9.5c1.1,0,2.1,0.2,3,0.6c0.9,0.4,1.7,1,2.4,1.7c0.7,0.7,1.2,1.5,1.7,2.4c0.4,0.9,0.6,1.9,0.6,3
				c0,1.1-0.2,2.1-0.6,3c-0.4,0.9-1,1.7-1.7,2.4c-0.7,0.7-1.5,1.2-2.4,1.7c-0.9,0.4-1.9,0.6-3,0.6c-0.9,0-1.7-0.1-2.5-0.4
				c-0.8-0.3-1.5-0.7-2.2-1.2v7.7h-3V17.2v0c0-1.1,0.2-2.1,0.6-3c0.4-0.9,0.9-1.7,1.6-2.4c0.7-0.7,1.5-1.2,2.4-1.7
				C105.4,9.7,106.4,9.5,107.4,9.5z M107.4,21.8c0.6,0,1.2-0.1,1.8-0.4c0.6-0.3,1.1-0.6,1.5-1c0.4-0.4,0.8-0.9,1-1.5
				c0.3-0.6,0.4-1.2,0.4-1.8c0-0.6-0.1-1.2-0.4-1.8c-0.3-0.6-0.6-1.1-1-1.5c-0.4-0.4-0.9-0.8-1.5-1s-1.2-0.4-1.8-0.4
				c-0.7,0-1.3,0.1-1.8,0.4c-0.6,0.3-1.1,0.6-1.5,1c-0.4,0.4-0.8,0.9-1,1.5c-0.2,0.6-0.4,1.2-0.4,1.8v0c0,0.6,0.1,1.2,0.4,1.8
				c0.3,0.6,0.6,1.1,1,1.5c0.4,0.4,0.9,0.8,1.5,1C106.2,21.7,106.8,21.8,107.4,21.8z"/>
			<path class="st1-logo" d="M117.3,3.5h3v21.2h-3V3.5z"/>
			<path class="st1-logo" d="M130,9.5c1.1,0,2.1,0.2,3,0.6c0.9,0.4,1.8,1,2.5,1.7c0.7,0.7,1.3,1.5,1.7,2.5c0.4,0.9,0.6,1.9,0.6,3v7.5h-3
				v-1.4c-0.7,0.5-1.4,0.9-2.2,1.2c-0.8,0.3-1.6,0.4-2.5,0.4c-1.1,0-2.1-0.2-3-0.6c-0.9-0.4-1.8-1-2.4-1.7c-0.7-0.7-1.2-1.5-1.7-2.4
				c-0.4-0.9-0.6-1.9-0.6-3c0-1.1,0.2-2.1,0.6-3c0.4-0.9,1-1.8,1.6-2.5c0.7-0.7,1.5-1.2,2.4-1.7C127.9,9.7,128.9,9.5,130,9.5z
				 M130,22c0.7,0,1.3-0.1,1.8-0.4c0.6-0.3,1.1-0.6,1.5-1c0.4-0.4,0.8-0.9,1-1.5c0.3-0.6,0.4-1.2,0.4-1.8c0-0.7-0.1-1.3-0.4-1.8
				c-0.3-0.6-0.6-1.1-1-1.5c-0.4-0.4-0.9-0.8-1.5-1c-0.6-0.3-1.2-0.4-1.8-0.4s-1.3,0.1-1.8,0.4c-0.6,0.3-1.1,0.6-1.5,1
				c-0.4,0.4-0.8,0.9-1,1.5c-0.3,0.6-0.4,1.2-0.4,1.8c0,0.6,0.1,1.2,0.4,1.8c0.3,0.6,0.6,1.1,1,1.5c0.4,0.4,0.9,0.8,1.5,1
				C128.7,21.8,129.3,22,130,22z"/>
			<path class="st1-logo" d="M150.4,10.5c0.9,0.6,1.6,1.4,2.2,2.4c0.5,1,0.8,2,0.8,3.2v8.7h-3v-3.2v-5.6c0-0.5-0.1-1-0.3-1.4
				c-0.2-0.5-0.5-0.8-0.8-1.2c-0.3-0.3-0.7-0.6-1.2-0.8c-0.4-0.2-0.9-0.3-1.4-0.3c-0.5,0-1,0.1-1.4,0.3c-0.5,0.2-0.8,0.5-1.2,0.8
				c-0.3,0.3-0.6,0.7-0.8,1.2c-0.2,0.5-0.3,0.9-0.3,1.4v5.6v3.2h-3v-8.7V9.4h3l0,1.1c0.5-0.3,1.1-0.6,1.7-0.8c0.6-0.2,1.3-0.3,2-0.3
				s1.3,0.1,2,0.3C149.3,9.9,149.9,10.1,150.4,10.5z"/>
			<path class="st1-logo" d="M166.1,10.5c0.9,0.6,1.6,1.4,2.2,2.4c0.5,1,0.8,2,0.8,3.2v8.7h-3v-3.2v-5.6c0-0.5-0.1-1-0.3-1.4
				c-0.2-0.5-0.5-0.8-0.8-1.2c-0.3-0.3-0.7-0.6-1.2-0.8c-0.4-0.2-0.9-0.3-1.4-0.3c-0.5,0-1,0.1-1.4,0.3c-0.5,0.2-0.8,0.5-1.2,0.8
				c-0.3,0.3-0.6,0.7-0.8,1.2c-0.2,0.5-0.3,0.9-0.3,1.4v5.6v3.2h-3v-8.7V9.4h3l0,1.1c0.5-0.3,1.1-0.6,1.7-0.8c0.6-0.2,1.3-0.3,2-0.3
				s1.3,0.1,2,0.3C165,9.9,165.6,10.1,166.1,10.5z"/>
			<path class="st1-logo" d="M179.8,18.1H174c0.1,0.5,0.3,1,0.6,1.5c0.3,0.5,0.6,0.8,1,1.2c0.4,0.3,0.9,0.6,1.4,0.8s1,0.3,1.6,0.3
				c0.7,0,1.3-0.1,1.9-0.4c0.6-0.3,1.1-0.6,1.5-1.1h0.5h3c-0.1,0.3-0.3,0.6-0.4,0.8c-0.2,0.3-0.3,0.5-0.5,0.8
				c-0.7,0.9-1.6,1.6-2.6,2.1c-1,0.5-2.2,0.8-3.4,0.8c-1.1,0-2.1-0.2-3-0.6c-0.9-0.4-1.7-0.9-2.4-1.6c-0.7-0.7-1.2-1.5-1.6-2.4
				c-0.4-0.9-0.6-1.9-0.6-3c0-1.1,0.2-2.1,0.6-3s0.9-1.7,1.6-2.4c0.7-0.7,1.5-1.2,2.4-1.6c0.9-0.4,1.9-0.6,3-0.6
				c1.2,0,2.3,0.3,3.4,0.8c1,0.5,1.9,1.2,2.6,2.2c0.6,0.8,1.1,1.7,1.4,2.7c0.2,0.6,0.3,1.3,0.3,2c0,0.3,0,0.7-0.1,1h-3H179.8z
				 M178.6,12.5c-0.9,0-1.8,0.2-2.5,0.7c-0.7,0.5-1.3,1.1-1.7,1.9h6.7h1.7c-0.1-0.2-0.2-0.3-0.3-0.5c-0.1-0.2-0.2-0.3-0.3-0.4
				c-0.4-0.6-1-1-1.6-1.3C180,12.7,179.3,12.5,178.6,12.5z"/>
			<path class="st1-logo" d="M198.3,10.6c0.7,0.4,1.2,1,1.7,1.6l-1.7,1.3l-0.6,0.5c-0.3-0.5-0.8-0.9-1.3-1.2c-0.5-0.3-1.1-0.4-1.7-0.4
				c-0.5,0-1,0.1-1.4,0.3c-0.4,0.2-0.8,0.5-1.2,0.8c-0.3,0.3-0.6,0.7-0.8,1.2c-0.2,0.4-0.3,0.9-0.3,1.4v5.5v3.1h-3v-8.6V9.5h3v1.1
				c0.5-0.4,1.1-0.6,1.7-0.8c0.6-0.2,1.3-0.3,1.9-0.3c0.7,0,1.3,0.1,1.9,0.3S197.8,10.3,198.3,10.6z"/>
		</g>
		<g>
			<path class="st1-logo" d="M111.1,26.9c0.3,0.2,0.6,0.4,0.8,0.8c0.2,0.3,0.3,0.7,0.3,1.1c0,0.4-0.1,0.7-0.3,1.1
				c-0.2,0.3-0.5,0.6-0.8,0.8c-0.3,0.2-0.7,0.3-1.1,0.3h-1.7v-4.2h1.7C110.4,26.7,110.8,26.7,111.1,26.9z M110.9,30.3
				c0.3-0.2,0.5-0.4,0.6-0.6c0.2-0.3,0.2-0.6,0.2-0.9c0-0.3-0.1-0.6-0.2-0.9c-0.2-0.3-0.4-0.5-0.6-0.6c-0.3-0.2-0.6-0.2-0.9-0.2
				h-1.3v3.5h1.3C110.4,30.5,110.7,30.4,110.9,30.3z"/>
			<path class="st1-logo" d="M117.2,30.9l-0.9-1.4c-0.1,0-0.2,0-0.3,0h-1.2v1.4h-0.4v-4.2h1.6c0.5,0,0.9,0.1,1.2,0.4
				c0.3,0.2,0.4,0.6,0.4,1c0,0.4-0.1,0.6-0.3,0.9c-0.2,0.2-0.4,0.4-0.7,0.5l1,1.5H117.2z M115.9,29.1c0.4,0,0.7-0.1,0.9-0.3
				c0.2-0.2,0.3-0.4,0.3-0.8c0-0.3-0.1-0.6-0.3-0.8c-0.2-0.2-0.5-0.3-0.9-0.3h-1.2v2.1H115.9z"/>
			<path class="st1-logo" d="M119.9,26.7h0.4v4.2h-0.4V26.7z"/>
			<path class="st1-logo" d="M122.2,26.7h0.4l1.5,3.8l1.5-3.8h0.4l-1.7,4.2h-0.4L122.2,26.7z"/>
			<path class="st1-logo" d="M128,26.7h2.8V27h-2.4v1.5h2.2v0.4h-2.2v1.6h2.5v0.4H128V26.7z"/>
			<path class="st1-logo" d="M139.2,26.7l-1.6,2.7v1.5h-0.4v-1.5l-1.7-2.7h0.4l1.4,2.3l1.4-2.3H139.2z"/>
			<path class="st1-logo" d="M143.8,26.9c0.3,0.2,0.6,0.5,0.8,0.8c0.2,0.3,0.3,0.7,0.3,1.1c0,0.4-0.1,0.8-0.3,1.1
				c-0.2,0.3-0.5,0.6-0.8,0.8c-0.3,0.2-0.7,0.3-1.1,0.3c-0.4,0-0.8-0.1-1.1-0.3c-0.3-0.2-0.6-0.5-0.8-0.8c-0.2-0.3-0.3-0.7-0.3-1.1
				c0-0.4,0.1-0.8,0.3-1.1c0.2-0.3,0.5-0.6,0.8-0.8c0.3-0.2,0.7-0.3,1.1-0.3C143.1,26.6,143.5,26.7,143.8,26.9z M141.8,27.2
				c-0.3,0.2-0.5,0.4-0.7,0.6c-0.2,0.3-0.2,0.6-0.2,0.9c0,0.3,0.1,0.6,0.2,0.9s0.4,0.5,0.7,0.7s0.6,0.2,0.9,0.2
				c0.3,0,0.6-0.1,0.9-0.2c0.3-0.2,0.5-0.4,0.7-0.7s0.2-0.6,0.2-0.9c0-0.3-0.1-0.6-0.2-0.9c-0.2-0.3-0.4-0.5-0.7-0.6
				c-0.3-0.2-0.6-0.2-0.9-0.2C142.4,27,142.1,27.1,141.8,27.2z"/>
			<path class="st1-logo" d="M147.8,30.2c0.2,0.2,0.6,0.4,1,0.4s0.7-0.1,1-0.4c0.2-0.2,0.4-0.6,0.4-1v-2.5h0.4v2.5c0,0.5-0.2,1-0.5,1.3
				c-0.3,0.3-0.7,0.5-1.3,0.5s-1-0.2-1.3-0.5c-0.3-0.3-0.5-0.7-0.5-1.3v-2.5h0.4v2.5C147.4,29.6,147.5,29.9,147.8,30.2z"/>
			<path class="st1-logo" d="M155.7,30.9l-0.9-1.4c-0.1,0-0.2,0-0.3,0h-1.2v1.4h-0.4v-4.2h1.6c0.5,0,0.9,0.1,1.2,0.4
				c0.3,0.2,0.4,0.6,0.4,1c0,0.4-0.1,0.6-0.3,0.9c-0.2,0.2-0.4,0.4-0.7,0.5l1,1.5H155.7z M154.5,29.1c0.4,0,0.7-0.1,0.9-0.3
				c0.2-0.2,0.3-0.4,0.3-0.8c0-0.3-0.1-0.6-0.3-0.8c-0.2-0.2-0.5-0.3-0.9-0.3h-1.2v2.1H154.5z"/>
			<path class="st1-logo" d="M164,27.1c-0.2-0.1-0.5-0.1-0.7-0.1c-0.3,0-0.6,0.1-0.9,0.2c-0.3,0.2-0.5,0.4-0.6,0.6
				c-0.2,0.3-0.2,0.6-0.2,0.9c0,0.3,0.1,0.6,0.2,0.9c0.2,0.3,0.4,0.5,0.6,0.6c0.3,0.2,0.6,0.2,0.9,0.2c0.2,0,0.5,0,0.7-0.1
				c0.2-0.1,0.4-0.2,0.6-0.4l0.3,0.3c-0.2,0.2-0.5,0.3-0.7,0.5c-0.3,0.1-0.5,0.2-0.8,0.2c-0.4,0-0.8-0.1-1.1-0.3
				c-0.3-0.2-0.6-0.5-0.8-0.8s-0.3-0.7-0.3-1.1c0-0.4,0.1-0.8,0.3-1.1s0.5-0.6,0.8-0.8c0.3-0.2,0.7-0.3,1.1-0.3
				c0.3,0,0.6,0.1,0.8,0.2c0.3,0.1,0.5,0.3,0.7,0.4l-0.2,0.3C164.4,27.3,164.2,27.2,164,27.1z"/>
			<path class="st1-logo" d="M166.9,26.7h0.4v1.9h2.6v-1.9h0.4v4.2H170V29h-2.6v1.9h-0.4V26.7z"/>
			<path class="st1-logo" d="M175.9,26.9c0.3,0.2,0.6,0.5,0.8,0.8c0.2,0.3,0.3,0.7,0.3,1.1c0,0.4-0.1,0.8-0.3,1.1
				c-0.2,0.3-0.5,0.6-0.8,0.8c-0.3,0.2-0.7,0.3-1.1,0.3c-0.4,0-0.8-0.1-1.1-0.3c-0.3-0.2-0.6-0.5-0.8-0.8s-0.3-0.7-0.3-1.1
				c0-0.4,0.1-0.8,0.3-1.1s0.5-0.6,0.8-0.8c0.3-0.2,0.7-0.3,1.1-0.3C175.2,26.6,175.5,26.7,175.9,26.9z M173.9,27.2
				c-0.3,0.2-0.5,0.4-0.7,0.6c-0.2,0.3-0.2,0.6-0.2,0.9c0,0.3,0.1,0.6,0.2,0.9c0.2,0.3,0.4,0.5,0.7,0.7s0.6,0.2,0.9,0.2
				c0.3,0,0.6-0.1,0.9-0.2c0.3-0.2,0.5-0.4,0.7-0.7c0.2-0.3,0.2-0.6,0.2-0.9c0-0.3-0.1-0.6-0.2-0.9c-0.2-0.3-0.4-0.5-0.7-0.6
				c-0.3-0.2-0.6-0.2-0.9-0.2C174.5,27,174.2,27.1,173.9,27.2z"/>
			<path class="st1-logo" d="M179.1,26.7h0.4v4.2h-0.4V26.7z"/>
			<path class="st1-logo" d="M184.6,27.1c-0.2-0.1-0.5-0.1-0.7-0.1c-0.3,0-0.6,0.1-0.9,0.2c-0.3,0.2-0.5,0.4-0.6,0.6
				c-0.2,0.3-0.2,0.6-0.2,0.9c0,0.3,0.1,0.6,0.2,0.9c0.2,0.3,0.4,0.5,0.6,0.6c0.3,0.2,0.6,0.2,0.9,0.2c0.2,0,0.5,0,0.7-0.1
				c0.2-0.1,0.4-0.2,0.6-0.4l0.3,0.3c-0.2,0.2-0.5,0.3-0.7,0.5c-0.3,0.1-0.5,0.2-0.8,0.2c-0.4,0-0.8-0.1-1.1-0.3
				c-0.3-0.2-0.6-0.5-0.8-0.8c-0.2-0.3-0.3-0.7-0.3-1.1c0-0.4,0.1-0.8,0.3-1.1c0.2-0.3,0.5-0.6,0.8-0.8c0.3-0.2,0.7-0.3,1.1-0.3
				c0.3,0,0.6,0.1,0.8,0.2c0.3,0.1,0.5,0.3,0.7,0.4l-0.2,0.3C185,27.3,184.8,27.2,184.6,27.1z"/>
			<path class="st1-logo" d="M187.5,26.7h2.8V27h-2.4v1.5h2.2v0.4h-2.2v1.6h2.5v0.4h-2.9V26.7z"/>
		</g>
	</g>
	<g>
		<path class="st1-logo" d="M40.5,19c-3.6-3.4-9.2-3.2-12.6,0.4l-2,2.2l-0.9,1v0l-0.7,0.8l-5.1,5.5c0,0,0,0,0,0c0,0-0.1,0.1-0.1,0.1
			c-1.3,1.3-3.1,1.7-4.8,1.2c0,0,0,0,0,0c-0.1,0-0.3-0.1-0.4-0.1c0,0,0,0,0,0c-0.1,0-0.2-0.1-0.4-0.2c0,0,0,0,0,0
			c-0.1-0.1-0.2-0.1-0.3-0.2c0,0,0,0,0,0c-0.1-0.1-0.2-0.2-0.3-0.2c0,0,0,0,0,0c-0.1,0-0.1-0.1-0.2-0.1c0,0,0,0,0,0
			c0,0-0.1-0.1-0.1-0.1l0,0c-1.9-1.8-2-4.9-0.2-6.8c1.8-1.9,4.9-2,6.8-0.2c0.6,0.5,1,1.2,1.2,1.8l3-3.2c-0.4-0.6-0.8-1.2-1.4-1.7
			c-3.6-3.4-9.2-3.2-12.6,0.4c-2.9,3.1-3.2,7.6-1,11c0,0.1,0.1,0.1,0.1,0.2c0,0,0,0.1,0.1,0.1c0.1,0.1,0.1,0.2,0.2,0.2
			c0,0,0.1,0.1,0.1,0.1c0.1,0.1,0.1,0.1,0.2,0.2C8.9,31.3,9,31.4,9,31.4c0,0,0.1,0.1,0.1,0.1c0.1,0.1,0.1,0.2,0.2,0.2
			c0,0,0,0.1,0.1,0.1c0,0,0,0,0,0c0,0,0,0,0.1,0c0,0,0.1,0.1,0.1,0.1c0,0,0.1,0.1,0.1,0.1c0.1,0.1,0.1,0.1,0.2,0.2
			c0.1,0.1,0.1,0.1,0.1,0.1c0,0,0,0,0,0c0,0,0,0,0,0c3.6,2.8,8.8,2.5,12-0.9l2-2.1c0,0,0.9-1,0.9-1l0.7-0.8l5.1-5.6c0,0,0,0,0,0
			c1.8-1.9,4.9-2,6.8-0.2c1.9,1.8,2,4.9,0.2,6.8c-1.8,1.9-4.9,2-6.8,0.2c-0.6-0.5-1-1.2-1.2-1.8l-3,3.2c0.4,0.6,0.8,1.2,1.4,1.7
			c3.6,3.4,9.2,3.2,12.6-0.4C44.3,28,44.1,22.3,40.5,19z"/>
		<path class="st1-logo" d="M45.8,7.7C42.3,2.6,36.7,0,29.2,0C22.8,0,15.6,3,9.5,8.3C3.6,13.4,0,19.7,0,25.1h5.4c0-3.7,2.9-8.6,7.7-12.7
			c5-4.3,11-6.9,16.1-6.9c2.3,0,4.3,0.3,6,0.8c0,0,0.1,0,0.1,0.1c4.7,2.1,7.1,5.9,8.3,9.5c0.7,2.6,1.1,5.7,1.1,9.3l5.4,0
			c0,0,0,0,0,0h0C50.1,17.6,48.7,11.9,45.8,7.7z"/>
	</g>
</g>
</svg>
